{"asset":{"generator":"Khronos glTF Spline I/O v0.0.1","version":"2.0"},"scenes":[{"nodes":[0]}],"nodes":[{"name":"super","children":[1,2]},{"name":"Torus Knot","matrix":[1,0,0,0,0,-1,-1.2246467991473532e-16,0,0,1.2246467991473532e-16,-1,0,-192.4549094823899,324.2745887339056,65.79244449731777,1],"mesh":0},{"name":"Default Camera","camera":0,"translation":[-178.28596594096726,438.34055914694983,-845.7889883281505],"rotation":[0.0001354108748854141,0.9980467219209235,0.06243426104253372,-0.0021646188732779683],"children":[3]},{"name":"Default Directional Light","translation":[850000,1300000,1000000],"rotation":[-0.45895513091666534,0.1367267597249462,-0.25064115022945466,0.8413352451859125],"extensions":{"KHR_lights_punctual":{"light":0}}}],"cameras":[{"type":"orthographic","orthographic":{"xmag":1350,"ymag":729,"zfar":50000,"znear":-50000}}],"meshes":[{"primitives":[{"attributes":{"POSITION":1,"NORMAL":2,"TEXCOORD_0":3},"indices":0}]}],"buffers":[{"uri":"data:application/octet-stream;base64,","byteLength":433056}],"bufferViews":[{"buffer":0,"byteOffset":0,"byteLength":115200,"target":34963},{"buffer":0,"byteOffset":115200,"byteLength":119196,"target":34962},{"buffer":0,"byteOffset":234396,"byteLength":119196,"target":34962},{"buffer":0,"byteOffset":353592,"byteLength":79464,"target":34962}],"accessors":[{"bufferView":0,"byteOffset":0,"componentType":5123,"count":57600,"type":"SCALAR","min":[0],"max":[9932]},{"bufferView":1,"byteOffset":0,"componentType":5126,"count":9933,"type":"VEC3","min":[-249.1307373046875,-288.2369384765625,-134.2264862060547],"max":[302.74847412109375,288.22723388671875,134.22605895996094]},{"bufferView":2,"byteOffset":0,"componentType":5126,"count":9933,"type":"VEC3","min":[-0.9999939799308777,-0.9994268417358398,-0.9995296001434326],"max":[0.9999939799308777,0.9994268417358398,0.9995296001434326]},{"bufferView":3,"byteOffset":0,"componentType":5126,"count":9933,"type":"VEC2","min":[0,0],"max":[1,1]}],"extensions":{"KHR_lights_punctual":{"lights":[{"type":"directional","name":"Default Directional Light","color":[1,1,1],"intensity":0.75}]}},"extensionsUsed":["KHR_lights_punctual"]}