{
  "accessors": [
    {
      "bufferView": 2,
      "componentType": 5126,
      "count": 34723,
      "max": [
        4.3237457275390625,
        1.3273700475692749,
        1.0473568439483643
      ],
      "min": [
        -4.5422096252441406,
        -1.5429739952087402,
        -0.48388546705245972
      ],
      "type": "VEC3"
    },
    {
      "bufferView": 2,
      "byteOffset": 416676,
      "componentType": 5126,
      "count": 34723,
      "max": [
        1,
        1,
        1
      ],
      "min": [
        -1,
        -1,
        -1
      ],
      "type": "VEC3"
    },
    {
      "bufferView": 3,
      "componentType": 5126,
      "count": 34723,
      "max": [
        1,
        1,
        1,
        1
      ],
      "min": [
        -1,
        -1,
        -1,
        -1
      ],
      "type": "VEC4"
    },
    {
      "bufferView": 1,
      "componentType": 5126,
      "count": 34723,
      "max": [
        0.9931025505065918,
        0.9925001859664917
      ],
      "min": [
        0.006897422019392252,
        0.0068974224850535393
      ],
      "type": "VEC2"
    },
    {
      "bufferView": 0,
      "componentType": 5125,
      "count": 94674,
      "max": [
        34722
      ],
      "min": [
        0
      ],
      "type": "SCALAR"
    },
    {
      "bufferView": 2,
      "byteOffset": 833352,
      "componentType": 5126,
      "count": 9429,
      "max": [
        6.273259162902832,
        1.6159713268280029,
        0.78231239318847656
      ],
      "min": [
        -2.2808949947357178,
        -0.58631604909896851,
        -0.41422078013420105
      ],
      "type": "VEC3"
    },
    {
      "bufferView": 2,
      "byteOffset": 946500,
      "componentType": 5126,
      "count": 9429,
      "max": [
        1,
        1,
        1
      ],
      "min": [
        -1,
        -1,
        -1
      ],
      "type": "VEC3"
    },
    {
      "bufferView": 3,
      "byteOffset": 555568,
      "componentType": 5126,
      "count": 9429,
      "max": [
        1,
        1,
        1,
        1
      ],
      "min": [
        -1,
        -1,
        -1,
        -1
      ],
      "type": "VEC4"
    },
    {
      "bufferView": 1,
      "byteOffset": 277784,
      "componentType": 5126,
      "count": 9429,
      "max": [
        0.98923927545547485,
        0.98923188447952271
      ],
      "min": [
        0.010760791599750519,
        0.010760791599750519
      ],
      "type": "VEC2"
    },
    {
      "bufferView": 0,
      "byteOffset": 378696,
      "componentType": 5125,
      "count": 30297,
      "max": [
        9428
      ],
      "min": [
        0
      ],
      "type": "SCALAR"
    },
    {
      "bufferView": 2,
      "byteOffset": 1059648,
      "componentType": 5126,
      "count": 5949,
      "max": [
        2.2336158752441406,
        0.5729404091835022,
        0.40809935331344604
      ],
      "min": [
        -0.077878765761852264,
        -0.5729404091835022,
        -0.40809935331344604
      ],
      "type": "VEC3"
    },
    {
      "bufferView": 2,
      "byteOffset": 1131036,
      "componentType": 5126,
      "count": 5949,
      "max": [
        1,
        1,
        1
      ],
      "min": [
        -1,
        -1,
        -1
      ],
      "type": "VEC3"
    },
    {
      "bufferView": 3,
      "byteOffset": 706432,
      "componentType": 5126,
      "count": 5949,
      "max": [
        1,
        1,
        1,
        1
      ],
      "min": [
        -1,
        -1,
        -1,
        -1
      ],
      "type": "VEC4"
    },
    {
      "bufferView": 1,
      "byteOffset": 353216,
      "componentType": 5126,
      "count": 5949,
      "max": [
        0.98843610286712646,
        0.98962134122848511
      ],
      "min": [
        0.0068974224850535393,
        0.0068974224850535393
      ],
      "type": "VEC2"
    },
    {
      "bufferView": 0,
      "byteOffset": 499884,
      "componentType": 5125,
      "count": 16818,
      "max": [
        5948
      ],
      "min": [
        0
      ],
      "type": "SCALAR"
    },
    {
      "bufferView": 4,
      "componentType": 5126,
      "count": 70,
      "max": [
        2.9166667461395264
      ],
      "min": [
        0.041666667908430099
      ],
      "type": "SCALAR"
    },
    {
      "bufferView": 5,
      "componentType": 5126,
      "count": 70,
      "max": [
        1,
        0,
        -0,
        1
      ],
      "min": [
        -0.9989931583404541,
        0,
        -0,
        -4.3711388286737929e-08
      ],
      "type": "VEC4"
    }
  ],
  "animations": [
    {
      "channels": [
        {
          "sampler": 0,
          "target": {
            "node": 8,
            "path": "rotation"
          }
        }
      ],
      "name": "Action",
      "samplers": [
        {
          "input": 15,
          "interpolation": "LINEAR",
          "output": 16
        }
      ]
    }
  ],
  "asset": {
    "extras": {
      "author": "valerij1987 (https://sketchfab.com/valerij1987)",
      "license": "CC-BY-4.0 (http://creativecommons.org/licenses/by/4.0/)",
      "source": "https://sketchfab.com/3d-models/heavy-assault-rifle-1b91aca44b65417f957d9ec30ce8ee19",
      "title": "Heavy Assault Rifle"
    },
    "generator": "Sketchfab-8.25.0",
    "version": "2.0"
  },
  "bufferViews": [
    {
      "buffer": 0,
      "byteLength": 567156,
      "byteOffset": 0,
      "name": "floatBufferViews",
      "target": 34963
    },
    {
      "buffer": 0,
      "byteLength": 400808,
      "byteOffset": 567156,
      "byteStride": 8,
      "name": "floatBufferViews",
      "target": 34962
    },
    {
      "buffer": 0,
      "byteLength": 1202424,
      "byteOffset": 967964,
      "byteStride": 12,
      "name": "floatBufferViews",
      "target": 34962
    },
    {
      "buffer": 0,
      "byteLength": 801616,
      "byteOffset": 2170388,
      "byteStride": 16,
      "name": "floatBufferViews",
      "target": 34962
    },
    {
      "buffer": 0,
      "byteLength": 280,
      "byteOffset": 2972004,
      "name": "floatBufferViews"
    },
    {
      "buffer": 0,
      "byteLength": 1120,
      "byteOffset": 2972284,
      "byteStride": 16,
      "name": "floatBufferViews"
    }
  ],
  "buffers": [
    {
      "byteLength": 2973404,
      "uri": "scene.bin"
    }
  ],
  "images": [
    {
      "uri": "textures/UV_2_baseColor.png"
    },
    {
      "uri": "textures/UV_2_metallicRoughness.png"
    },
    {
      "uri": "textures/UV_2_normal.png"
    },
    {
      "uri": "textures/UV_1_baseColor.png"
    },
    {
      "uri": "textures/UV_1_metallicRoughness.png"
    },
    {
      "uri": "textures/UV_1_normal.png"
    }
  ],
  "materials": [
    {
      "doubleSided": true,
      "emissiveFactor": [
        0,
        0,
        0
      ],
      "name": "UV_2",
      "normalTexture": {
        "index": 2,
        "scale": 1,
        "texCoord": 0
      },
      "occlusionTexture": {
        "index": 1,
        "strength": 0.53827913796029436,
        "texCoord": 0
      },
      "pbrMetallicRoughness": {
        "baseColorFactor": [
          1,
          1,
          1,
          1
        ],
        "baseColorTexture": {
          "index": 0,
          "texCoord": 0
        },
        "metallicFactor": 1,
        "metallicRoughnessTexture": {
          "index": 1,
          "texCoord": 0
        },
        "roughnessFactor": 1
      }
    },
    {
      "doubleSided": true,
      "emissiveFactor": [
        0,
        0,
        0
      ],
      "name": "UV_1",
      "normalTexture": {
        "index": 5,
        "scale": 1,
        "texCoord": 0
      },
      "occlusionTexture": {
        "index": 4,
        "strength": 0.81876694283834317,
        "texCoord": 0
      },
      "pbrMetallicRoughness": {
        "baseColorFactor": [
          1,
          1,
          1,
          1
        ],
        "baseColorTexture": {
          "index": 3,
          "texCoord": 0
        },
        "metallicFactor": 1,
        "metallicRoughnessTexture": {
          "index": 4,
          "texCoord": 0
        },
        "roughnessFactor": 1
      }
    }
  ],
  "meshes": [
    {
      "primitives": [
        {
          "attributes": {
            "NORMAL": 1,
            "POSITION": 0,
            "TANGENT": 2,
            "TEXCOORD_0": 3
          },
          "indices": 4,
          "material": 0,
          "mode": 4
        }
      ]
    },
    {
      "primitives": [
        {
          "attributes": {
            "NORMAL": 6,
            "POSITION": 5,
            "TANGENT": 7,
            "TEXCOORD_0": 8
          },
          "indices": 9,
          "material": 1,
          "mode": 4
        }
      ]
    },
    {
      "primitives": [
        {
          "attributes": {
            "NORMAL": 11,
            "POSITION": 10,
            "TANGENT": 12,
            "TEXCOORD_0": 13
          },
          "indices": 14,
          "material": 0,
          "mode": 4
        }
      ]
    }
  ],
  "nodes": [
    {
      "children": [
        1
      ],
      "name": "RootNode (gltf orientation matrix)",
      "rotation": [
        -0.70710678118654746,
        -0,
        -0,
        0.70710678118654757
      ]
    },
    {
      "children": [
        2
      ],
      "matrix": [
        0.21285861730575562,
        0,
        0,
        0,
        0,
        0.21285861730575562,
        0,
        0,
        0,
        0,
        0.21285861730575562,
        0,
        0,
        0,
        0,
        1
      ],
      "name": "RootNode (model correction matrix)"
    },
    {
      "children": [
        3
      ],
      "name": "root"
    },
    {
      "children": [
        4,
        6,
        8
      ],
      "matrix": [
        1,
        0,
        0,
        0,
        0,
        2.2204460492503131e-16,
        1,
        0,
        0,
        -1,
        2.2204460492503131e-16,
        0,
        0,
        0,
        0,
        1
      ],
      "name": "GLTF_SceneRootNode"
    },
    {
      "children": [
        5
      ],
      "name": "Cube.109_1"
    },
    {
      "mesh": 0,
      "name": ""
    },
    {
      "children": [
        7
      ],
      "matrix": [
        1.0547419786453247,
        0,
        0,
        0,
        0,
        1.0547420978546143,
        0,
        0,
        0,
        0,
        1.0547420978546143,
        0,
        -2.4114987850189209,
        -0.77501267194747925,
        0,
        1
      ],
      "name": "Cube.003_2"
    },
    {
      "mesh": 1,
      "name": ""
    },
    {
      "children": [
        9
      ],
      "name": "AnimationRing_3",
      "translation": [
        1.6318279504776001,
        0,
        0
      ]
    },
    {
      "mesh": 2,
      "name": ""
    }
  ],
  "samplers": [
    {
      "magFilter": 9729,
      "minFilter": 9987,
      "wrapS": 10497,
      "wrapT": 10497
    }
  ],
  "scene": 0,
  "scenes": [
    {
      "name": "OSG_Scene",
      "nodes": [
        0
      ]
    }
  ],
  "textures": [
    {
      "sampler": 0,
      "source": 0
    },
    {
      "sampler": 0,
      "source": 1
    },
    {
      "sampler": 0,
      "source": 2
    },
    {
      "sampler": 0,
      "source": 3
    },
    {
      "sampler": 0,
      "source": 4
    },
    {
      "sampler": 0,
      "source": 5
    }
  ]
}

